<svg xmlns="http://www.w3.org/2000/svg" viewBox="554.8 314.1 422.2 322.9">
<path d="M0 0 C0.11214844 1.09054687 0.11214844 1.09054687 0.2265625 2.203125 C1.81921593 14.38223943 6.72288359 24.78749877 16.109375 32.80078125 C26.94476528 41.06896305 39.25027615 43.57373093 52.43832397 45.05474854 C105.29665548 51.11221679 160.1884911 68.19409634 204 99 C204.95261719 99.66257812 205.90523437 100.32515625 206.88671875 101.0078125 C226.43704585 114.9139029 226.43704585 114.9139029 233 123 C233 123.66 233 124.32 233 125 C229.33430991 123.62045256 226.00489972 121.96520343 222.60546875 120.0234375 C221.57534668 119.43892822 220.54522461 118.85441895 219.48388672 118.25219727 C218.3960791 117.63272217 217.30827148 117.01324707 216.1875 116.375 C206.58384271 110.95353605 196.94530023 105.76208187 187 101 C185.82308594 100.42121094 184.64617187 99.84242188 183.43359375 99.24609375 C139.3509036 77.80886695 90.91906382 68.77832282 42.1875 68.75 C41.14164734 68.74932526 40.09579468 68.74865051 39.01824951 68.74795532 C23.44843633 68.76389976 8.36260153 69.27626997 -7 72 C-7.97275879 72.1556543 -8.94551758 72.31130859 -9.94775391 72.47167969 C-36.83031484 76.79741055 -67.11193353 84.66629274 -88 103 C-88.76699219 103.62519531 -89.53398438 104.25039063 -90.32421875 104.89453125 C-100.04647655 113.04194398 -105.28915911 122.10093122 -106.875 134.6875 C-107.46926701 143.96995072 -105.37703864 152.83423436 -101 161 C-100.67 161.66 -100.34 162.32 -100 163 C-118.87190094 160.53680008 -141.68162785 144.05311181 -153.15625 129.2109375 C-162.4220204 115.27302016 -165.22103205 100.73748499 -162.3515625 84.28125 C-155.09292193 58.72090883 -132.9781746 42.18646702 -110.91992188 29.59619141 C-80.48715209 12.95994986 -45.93550927 5.11623589 -11.875 0.0625 C-11.0099585 -0.06624512 -10.14491699 -0.19499023 -9.25366211 -0.32763672 C-5.77767632 -0.80058415 -3.37212797 -1.12404266 0 0 Z " fill="#F5301E" transform="translate(732,375)"/>
<path d="M0 0 C0.61875 0.639375 1.2375 1.27875 1.875 1.9375 C4.35814036 4.43459059 6.97621892 6.74270765 9.625 9.0625 C27.3838414 25.02163765 41.47216954 45.15844197 43 69.69921875 C43 94.26306062 32.11012966 112.03166099 15.17578125 129.08984375 C12.89493624 131.09223731 10.71263601 132.63693414 8 134 C7.34 133.67 6.68 133.34 6 133 C6.309375 132.38125 6.61875 131.7625 6.9375 131.125 C9.81269799 122.66853534 9.62864638 113.93235369 5.99609375 105.734375 C2.89773916 100.21255494 -0.78476652 97.28114361 -6.92489624 95.41496277 C-14.3903489 93.92208084 -21.54325598 95.29658332 -28.7734375 97.23046875 C-30.65223255 97.7073024 -32.53122861 98.1833446 -34.41040039 98.65869141 C-35.38381378 98.90887024 -36.35722717 99.15904907 -37.36013794 99.41680908 C-53.15805685 103.45524015 -68.88711848 107.00538176 -85.0625 109.125 C-85.78741638 109.22082367 -86.51233276 109.31664734 -87.25921631 109.41537476 C-91.83318386 110.0094416 -96.41177082 110.52624241 -101 111 C-102.00740234 111.10836182 -103.01480469 111.21672363 -104.05273438 111.32836914 C-114.08654493 112.26061988 -124.15702592 112.18608478 -134.22509766 112.18530273 C-137.33380207 112.18747126 -140.44214011 112.20563321 -143.55078125 112.22460938 C-199.59289603 112.38389561 -261.43230456 101.33467912 -309 70 C-309.66225586 69.5654248 -310.32451172 69.13084961 -311.00683594 68.68310547 C-325.85775708 58.86503524 -338.58923169 47.7383622 -351 35 C-350.01 34.505 -350.01 34.505 -349 34 C-346.515625 35.23046875 -346.515625 35.23046875 -343.25 37.1875 C-341.97769045 37.93421688 -340.70416936 38.67887185 -339.4296875 39.421875 C-338.72553711 39.83373047 -338.02138672 40.24558594 -337.29589844 40.66992188 C-296.66055697 64.21111076 -254.18311197 78.42207298 -207 80 C-205.96963623 80.03504639 -205.96963623 80.03504639 -204.91845703 80.07080078 C-143.45019177 81.82199148 -75.67879068 67.5449684 -26 30 C-25.13632812 29.37222656 -24.27265625 28.74445312 -23.3828125 28.09765625 C-18.19666032 24.24733115 -14.08420758 19.98724845 -10 15 C-9.13375 14.030625 -8.2675 13.06125 -7.375 12.0625 C-4.43394716 8.27008975 -2.21692184 4.24516949 0 0 Z " fill="#0053AF" transform="translate(919,491)"/>
<path d="M0 0 C4.57574725 3.92310501 7.83543687 8.01835782 10.6875 13.3125 C11.1 14.03695313 11.5125 14.76140625 11.9375 15.5078125 C16.14300071 24.12324798 16.12272418 34.53853359 13.83984375 43.72265625 C9.80790457 54.31503884 2.83179883 63.10233291 -7.3125 68.3125 C-19.11896093 73.27746867 -31.28899894 73.8814304 -43.3125 69.3125 C-54.3859415 63.97005016 -61.40476601 56.58153251 -66.3125 45.3125 C-69.74748886 35.33842684 -68.85402469 24.13845102 -64.53125 14.58203125 C-59.03848958 4.35352547 -51.07647906 -3.33288173 -39.98828125 -6.99609375 C-26.11877772 -10.57989247 -11.55802217 -8.63411775 0 0 Z " fill="#F6A512" transform="translate(814.3125,336.6875)"/>
<path d="M0 0 C3.67142716 1.63789961 5.78417055 3.71121129 8.4375 6.66015625 C9.91266394 8.14949066 9.91266394 8.14949066 11.9375 8.37109375 C14 9 14 9 15.7109375 11.19140625 C18.8165212 15.00184085 22.51984517 17.29087165 26.625 19.9375 C27.4404126 20.46964111 28.2558252 21.00178223 29.09594727 21.55004883 C31.3916846 23.04228955 33.69515446 24.52188669 36 26 C37.35544922 26.88945313 37.35544922 26.88945313 38.73828125 27.796875 C55.53151857 38.41568937 74.93988524 45.65765319 94 51 C95.54192233 51.47834332 97.08357669 51.95755106 98.625 52.4375 C103.14177424 53.78536279 107.68664034 55.00890117 112.25 56.1875 C112.92369629 56.36659912 113.59739258 56.54569824 114.29150391 56.73022461 C118.2829839 57.74166939 121.88685651 58.18521919 126 58 C126 58.66 126 59.32 126 60 C126.86044922 60.05607422 126.86044922 60.05607422 127.73828125 60.11328125 C132.98565922 60.51937575 138.1495571 61.1535587 143.33708191 62.02528381 C164.02437798 65.4702123 184.54499022 66.40680382 205.5 66.375 C206.73023895 66.37512085 207.96047791 66.3752417 209.22799683 66.37536621 C226.72967074 66.35092114 243.67216348 65.75862692 260.91699219 62.56884766 C264.10745643 61.98017315 267.30378407 61.45853519 270.5078125 60.94921875 C280.6996649 59.29338639 290.51781376 57.17664963 300.4362793 54.29125977 C330.19727677 45.68675274 330.19727677 45.68675274 342.8125 52.4375 C347.31700754 55.79813084 350.84825891 59.77434308 353 65 C353.44454859 68.18915293 353.30841339 70.76165938 353 74 C353.66 74.33 354.32 74.66 355 75 C355 76.65 355 78.3 355 80 C354.34 80 353.68 80 353 80 C353 81.32 353 82.64 353 84 C353.66 84 354.32 84 355 84 C355 83.34 355 82.68 355 82 C355.845625 81.67 356.69125 81.34 357.5625 81 C361.38097395 78.77834243 363.53020161 76.36834606 366.3203125 73.0078125 C368.41056272 70.50923433 370.66297232 68.26620866 373 66 C368.52149901 75.62769536 359.53962344 86.21434173 350 91 C349.34 90.67 348.68 90.34 348 90 C348.309375 89.38125 348.61875 88.7625 348.9375 88.125 C351.81269799 79.66853534 351.62864638 70.93235369 347.99609375 62.734375 C344.89773916 57.21255494 341.21523348 54.28114361 335.07510376 52.41496277 C327.6096511 50.92208084 320.45674402 52.29658332 313.2265625 54.23046875 C311.34776745 54.7073024 309.46877139 55.1833446 307.58959961 55.65869141 C306.12947952 56.03395966 306.12947952 56.03395966 304.63986206 56.41680908 C288.84194315 60.45524015 273.11288152 64.00538176 256.9375 66.125 C256.21258362 66.22082367 255.48766724 66.31664734 254.74078369 66.41537476 C250.16681614 67.0094416 245.58822918 67.52624241 241 68 C239.99259766 68.10836182 238.98519531 68.21672363 237.94726562 68.32836914 C227.91345507 69.26061988 217.84297408 69.18608478 207.77490234 69.18530273 C204.66619793 69.18747126 201.55785989 69.20563321 198.44921875 69.22460938 C142.40710397 69.38389561 80.56769544 58.33467912 33 27 C32.00661621 26.34813721 32.00661621 26.34813721 30.99316406 25.68310547 C19.73692322 18.24150895 8.42048982 10.69629788 0 0 Z " fill="#093881" transform="translate(577,534)"/>
<path d="M0 0 C0.58845703 0.20085205 1.17691406 0.4017041 1.78320312 0.60864258 C0.89967163 1.13651367 0.89967163 1.13651367 -0.00170898 1.67504883 C-2.72521528 3.30984622 -5.43968566 4.95912027 -8.15429688 6.60864258 C-9.08048828 7.16165039 -10.00667969 7.7146582 -10.9609375 8.28442383 C-16.65843303 11.76289479 -21.60743351 15.49415871 -26.44165039 20.10473633 C-28.21679688 21.60864258 -28.21679688 21.60864258 -30.21679688 21.60864258 C-30.47976563 22.19387695 -30.74273438 22.77911133 -31.01367188 23.38208008 C-32.27070055 25.70839938 -33.65518705 27.31594749 -35.46679688 29.23364258 C-47.58338424 42.9372258 -49.81703926 57.97933157 -50.21679688 75.60864258 C-49.55679688 75.60864258 -48.89679687 75.60864258 -48.21679688 75.60864258 C-46.51725202 79.9683446 -45.06503766 84.0039069 -44.21679688 88.60864258 C-43.42545318 91.8176282 -43.42545318 91.8176282 -42.21679688 94.60864258 C-41.22679687 94.93864258 -40.23679687 95.26864258 -39.21679688 95.60864258 C-39.21679688 96.26864258 -39.21679688 96.92864258 -39.21679688 97.60864258 C-38.55679688 97.93864258 -37.89679687 98.26864258 -37.21679688 98.60864258 C-35.63683576 100.39897895 -34.15130492 102.25251633 -32.65429688 104.11254883 C-31.94273437 104.85311523 -31.94273437 104.85311523 -31.21679688 105.60864258 C-30.55679688 105.60864258 -29.89679687 105.60864258 -29.21679688 105.60864258 C-28.55679688 106.59864258 -27.89679687 107.58864258 -27.21679688 108.60864258 C-26.26804687 109.08301758 -25.31929687 109.55739258 -24.34179688 110.04614258 C-21.21679688 111.60864258 -21.21679688 111.60864258 -19.27929688 113.60864258 C-16.51411692 116.2900292 -13.80052895 117.23028409 -10.21679688 118.60864258 C-10.21679688 119.26864258 -10.21679688 119.92864258 -10.21679688 120.60864258 C-9.28867187 120.89739258 -8.36054687 121.18614258 -7.40429688 121.48364258 C-4.21679688 122.60864258 -4.21679688 122.60864258 -1.21679688 124.60864258 C0.43869844 124.99364149 2.10544643 125.33657392 3.78320312 125.60864258 C3.78320312 126.26864258 3.78320312 126.92864258 3.78320312 127.60864258 C4.44320312 127.60864258 5.10320313 127.60864258 5.78320312 127.60864258 C6.27820313 125.62864258 6.27820313 125.62864258 6.78320312 123.60864258 C8.11653646 126.27530924 9.44986979 128.94197591 10.78320312 131.60864258 C-8.08869781 129.14544266 -30.89842472 112.66175439 -42.37304688 97.81958008 C-51.63881728 83.88166273 -54.43782892 69.34612757 -51.56835938 52.88989258 C-45.3738588 31.07677943 -28.17895795 15.7993943 -9.71679688 3.92114258 C-9.03399658 3.47432129 -8.35119629 3.0275 -7.64770508 2.56713867 C-2.74139029 -0.48397011 -2.74139029 -0.48397011 0 0 Z " fill="#E11C16" transform="translate(621.216796875,406.391357421875)"/>
<path d="M0 0 C0 2.93918454 -0.39195494 4.23826315 -1.5 6.875 C-2.77470255 10.12993815 -3.08992689 12.49285112 -3 16 C-3.350625 17.0725 -3.70125 18.145 -4.0625 19.25 C-5.35102474 24.40409895 -4.78962438 28.97215974 -3.45703125 34.08203125 C-3 36 -3 36 -3 39 C-2.01 39.33 -1.02 39.66 0 40 C0.12375 41.423125 0.12375 41.423125 0.25 42.875 C0.62788694 46.06325732 0.62788694 46.06325732 2.8125 47.125 C3.534375 47.41375 4.25625 47.7025 5 48 C7.25 50 7.25 50 9 52 C9 52.66 9 53.32 9 54 C10.2065625 54.185625 10.2065625 54.185625 11.4375 54.375 C12.283125 54.58125 13.12875 54.7875 14 55 C14.33 55.66 14.66 56.32 15 57 C25.45483311 62.19016656 36.95083355 61.3413328 48 59 C49.66657868 58.66622704 51.33321709 58.33275158 53 58 C53 57.01 53 56.02 53 55 C53.7425 54.731875 54.485 54.46375 55.25 54.1875 C57.87046481 53.05593565 59.7434989 51.71182842 62 50 C62.66 50 63.32 50 64 50 C61.6115129 55.78989282 56.20193062 58.63524268 50.6171875 61.015625 C38.38266597 65.24586634 26.13305643 65.40629915 14.328125 59.7109375 C3.90310007 53.80342338 -2.91388936 45.96104604 -6.8515625 34.52734375 C-9.36765208 24.21137647 -7.99206821 13.34721738 -3 4 C-2.02885371 2.64550649 -1.03609643 1.30548151 0 0 Z " fill="#E0680A" transform="translate(754,345)"/>
<path d="M0 0 C2.81074059 4.21611088 4.03832105 8.07139539 5 13 C5.7913437 16.20898563 5.7913437 16.20898563 7 19 C7.99 19.33 8.98 19.66 10 20 C10 20.66 10 21.32 10 22 C10.66 22.33 11.32 22.66 12 23 C13.57996111 24.79033637 15.06549195 26.64387375 16.5625 28.50390625 C17.036875 28.99761719 17.51125 29.49132812 18 30 C18.66 30 19.32 30 20 30 C20.66 30.99 21.32 31.98 22 33 C22.94875 33.474375 23.8975 33.94875 24.875 34.4375 C28 36 28 36 29.9375 38 C32.70267996 40.68138663 35.41626792 41.62164151 39 43 C39 43.66 39 44.32 39 45 C39.928125 45.28875 40.85625 45.5775 41.8125 45.875 C45 47 45 47 48 49 C49.65549531 49.38499891 51.3222433 49.72793135 53 50 C53 50.66 53 51.32 53 52 C53.66 52 54.32 52 55 52 C55.33 50.68 55.66 49.36 56 48 C57.33333333 50.66666667 58.66666667 53.33333333 60 56 C41.0825865 53.53085968 18.32956756 37.02366729 6.80859375 22.17578125 C2.79423903 16.16682021 -1.44790023 9.38942222 -0.6875 1.9375 C-0.460625 1.298125 -0.23375 0.65875 0 0 Z " fill="#D42120" transform="translate(572,482)"/>
<path d="M0 0 C8.17660305 0.18170229 14.70643419 4.66800926 20.34375 10.37109375 C24.69406108 15.57361129 29.97235755 22.00593127 30.01171875 29.1171875 C29.75 31.0625 29.75 31.0625 29 34 C28.67 34 28.34 34 28 34 C27.67 31.03 27.34 28.06 27 25 C26.34 25 25.68 25 25 25 C23.4921875 23.35546875 23.4921875 23.35546875 21.875 21.1875 C21.33617187 20.47980469 20.79734375 19.77210938 20.2421875 19.04296875 C19 17 19 17 19 14 C17.03277992 12.61876037 15.03131672 11.28511874 13 10 C12.67 9.34 12.34 8.68 12 8 C9.97536745 7.34786708 9.97536745 7.34786708 8 7 C8 6.34 8 5.68 8 5 C5.525 4.01 5.525 4.01 3 3 C3 2.34 3 1.68 3 1 C2.01 0.67 1.02 0.34 0 0 Z " fill="#FCBC1C" transform="translate(798,330)"/>
<path d="M0 0 C12.16264706 4.33757485 25.87161698 15.98516631 34 26 C34 26.66 34 27.32 34 28 C29.32815451 26.29863895 25.08190763 23.97387664 20.75 21.5625 C20.0178125 21.16740234 19.285625 20.77230469 18.53125 20.36523438 C17.48710938 19.78418945 17.48710938 19.78418945 16.421875 19.19140625 C15.47199707 18.66848999 15.47199707 18.66848999 14.50292969 18.13500977 C13 17 13 17 12 14 C16.75 15.875 16.75 15.875 19 17 C16.29941577 13.29919938 13.93162052 11.27439675 10 9 C8.21679745 7.83115629 6.44576108 6.64353686 4.6875 5.4375 C3.80449219 4.83808594 2.92148437 4.23867188 2.01171875 3.62109375 C1.34785156 3.08613281 0.68398438 2.55117188 0 2 C0 1.34 0 0.68 0 0 Z " fill="#E62820" transform="translate(931,472)"/>
<path d="M0 0 C0 2.93918454 -0.39195494 4.23826315 -1.5 6.875 C-2.77470255 10.12993815 -3.08992689 12.49285112 -3 16 C-3.350625 17.0725 -3.70125 18.145 -4.0625 19.25 C-5.34348284 24.37393137 -4.86560029 29.02345192 -3.39453125 34.08203125 C-3 36 -3 36 -4 39 C-7.91228029 35.08771971 -7.97144395 29.12612758 -8.04296875 23.80078125 C-7.58526813 14.80643192 -5.65570497 7.12618826 0 0 Z " fill="#E06F0F" transform="translate(754,345)"/>
<path d="M0 0 C7.16570944 2.20597253 13.76274305 5.09932974 20.5 8.375 C21.48097656 8.84421875 22.46195313 9.3134375 23.47265625 9.796875 C28.07070355 12.013244 32.64243932 14.28038479 37.15625 16.6640625 C37.87619141 17.04256348 38.59613281 17.42106445 39.33789062 17.81103516 C41 19 41 19 42 22 C37.53057133 20.35746335 33.47954628 18.14968308 29.3125 15.875 C22.27090014 12.06742931 15.10931584 8.71634088 7.71411133 5.65185547 C2.20956792 3.31435188 2.20956792 3.31435188 0 0 Z " fill="#EC2118" transform="translate(902,466)"/>
<path d="M0 0 C2.92297309 2.51772314 4.21074193 5.27290535 5.8125 8.75 C10.5116095 18.29757944 16.13561351 23.21755167 25 29 C25.99 29.66 26.98 30.32 28 31 C27.67 31.66 27.34 32.32 27 33 C14.31532016 26.24719549 4.83062601 16.75043312 0 3 C0 2.01 0 1.02 0 0 Z " fill="#F9250C" transform="translate(731,384)"/>
<path d="M0 0 C0.495 1.485 0.495 1.485 1 3 C-2.29493155 9.5898631 -11.3378481 20.37058571 -18.3359375 22.81640625 C-18.88507812 22.87699219 -19.43421875 22.93757812 -20 23 C-20 23.66 -20 24.32 -20 25 C-21.86328125 26.54296875 -21.86328125 26.54296875 -24.3125 28.1875 C-25.51326172 29.01314453 -25.51326172 29.01314453 -26.73828125 29.85546875 C-27.48464844 30.23316406 -28.23101563 30.61085938 -29 31 C-29.99 30.67 -30.98 30.34 -32 30 C-31.04738281 29.32453125 -30.09476563 28.6490625 -29.11328125 27.953125 C-27.8462995 27.0521602 -26.57937548 26.15111423 -25.3125 25.25 C-24.68666016 24.8065625 -24.06082031 24.363125 -23.41601562 23.90625 C-18.38755326 20.32577418 -13.52573528 16.85334002 -9.5 12.125 C-8.90960937 11.4340625 -8.31921875 10.743125 -7.7109375 10.03125 C-7.14632812 9.3609375 -6.58171875 8.690625 -6 8 C-5.49726562 7.4121875 -4.99453125 6.824375 -4.4765625 6.21875 C-1.97804099 3.2875322 -1.97804099 3.2875322 0 0 Z " fill="#0C51A9" transform="translate(915,498)"/>
<path d="M0 0 C3.69050299 0.36004907 6.41997818 1.09794732 9.5625 3 C12.58975461 4.76131177 14.58206079 5.58570434 18 6 C18 6.66 18 7.32 18 8 C18.66 8 19.32 8 20 8 C20.33 6.68 20.66 5.36 21 4 C23 8 23 8 25 12 C19.60154528 11.08416944 15.15569258 8.91237823 10.25 6.5625 C9.37472656 6.15451172 8.49945312 5.74652344 7.59765625 5.32617188 C6.76621094 4.93107422 5.93476562 4.53597656 5.078125 4.12890625 C4.31918945 3.76869385 3.56025391 3.40848145 2.77832031 3.03735352 C1 2 1 2 0 0 Z " fill="#CE2324" transform="translate(607,526)"/>
<path d="M0 0 C-0.33 0.66 -0.66 1.32 -1 2 C-3.31323242 2.68603516 -3.31323242 2.68603516 -6.35546875 3.2890625 C-7.45310547 3.50820313 -8.55074219 3.72734375 -9.68164062 3.953125 C-11.41704102 4.28570312 -11.41704102 4.28570312 -13.1875 4.625 C-14.32509766 4.85445313 -15.46269531 5.08390625 -16.63476562 5.3203125 C-21.85453582 6.34415534 -26.66310296 7.13010766 -32 7 C-27.72338031 4.14892021 -23.22461695 3.48621314 -18.25 2.375 C-16.78433594 2.03082031 -16.78433594 2.03082031 -15.2890625 1.6796875 C-10.07201489 0.49846917 -5.34853977 -0.28386105 0 0 Z " fill="#F72110" transform="translate(726,445)"/>
<path d="M0 0 C-0.60996826 0.37286133 -1.21993652 0.74572266 -1.84838867 1.12988281 C-4.63024888 2.83309489 -7.40888906 4.54149268 -10.1875 6.25 C-11.14720703 6.83652344 -12.10691406 7.42304688 -13.09570312 8.02734375 C-17.60355247 10.80380459 -21.98361857 13.52544304 -26 17 C-26 14 -26 14 -24.48828125 12.45703125 C-19.8437015 8.94649611 -15.09014429 5.6377756 -10.1875 2.5 C-9.10855469 1.8090625 -8.02960937 1.118125 -6.91796875 0.40625 C-3.72384054 -1.13308889 -3.18406477 -1.02984929 0 0 Z " fill="#EE1C10" transform="translate(623,407)"/>
<path d="M0 0 C5.07333503 1.45289006 9.17464987 3.69370844 13.625 6.4375 C14.27984375 6.83259766 14.9346875 7.22769531 15.609375 7.63476562 C18.86394594 9.61451981 22.00504824 11.63596447 25 14 C18.37226593 13.1377511 14.22789256 12.35533057 10 7 C9.34 7.66 8.68 8.32 8 9 C6.66368764 7.6905332 5.33102075 6.37734515 4 5.0625 C3.2575 4.33160156 2.515 3.60070312 1.75 2.84765625 C0 1 0 1 0 0 Z " fill="#425589" transform="translate(568,525)"/>
<path d="M0 0 C-5.7844894 3.00301152 -11.58452982 5.72479358 -17.66015625 8.0859375 C-20.80768717 9.31552387 -23.9012925 10.65273587 -27 12 C-27 11.01 -27 10.02 -27 9 C-23.2582605 7.29373467 -19.50546044 5.61332375 -15.75 3.9375 C-14.15478516 3.20950195 -14.15478516 3.20950195 -12.52734375 2.46679688 C-11.50253906 2.01240234 -10.47773437 1.55800781 -9.421875 1.08984375 C-8.47924805 0.66566162 -7.53662109 0.24147949 -6.56542969 -0.19555664 C-3.83886285 -1.05052787 -2.6315615 -0.99901872 0 0 Z " fill="#F52111" transform="translate(651,394)"/>
<path d="M0 0 C6.05885808 0.58368918 11.27358046 2.38738261 16.9375 4.5625 C17.81212891 4.89185547 18.68675781 5.22121094 19.58789062 5.56054688 C21.72774809 6.36737838 23.86491864 7.18063181 26 8 C26 8.33 26 8.66 26 9 C20.84182091 9.54296622 17.24550177 8.06994621 12.609375 6.08203125 C9.37069739 4.73904667 6.07185534 3.71391108 2.71484375 2.7109375 C1 2 1 2 0 0 Z " fill="#F31F13" transform="translate(873,456)"/>
<path d="M0 0 C8.36628849 7.05024311 8.36628849 7.05024311 11 10 C11 10.66 11 11.32 11 12 C6.69235185 10.43358249 2.93828536 8.31663844 -1 6 C-0.67 4.02 -0.34 2.04 0 0 Z " fill="#DF2C26" transform="translate(954,488)"/>
<path d="M0 0 C0 2.93918454 -0.39195494 4.23826315 -1.5 6.875 C-2.77470255 10.12993815 -3.08992689 12.49285112 -3 16 C-3.61568542 18.34730065 -4.27359045 20.68456957 -5 23 C-5.33 23 -5.66 23 -6 23 C-7.44046206 15.5576127 -6.56454091 10.70087399 -3 4 C-2.03017785 2.64455809 -1.03824511 1.30377332 0 0 Z " fill="#EA7F0F" transform="translate(754,345)"/>
<path d="M0 0 C0.72896484 -0.00386719 1.45792969 -0.00773437 2.20898438 -0.01171875 C5.42107736 -0.0058304 7.9946444 0.10238147 11.0625 1.125 C11.3925 2.115 11.7225 3.105 12.0625 4.125 C11.41023437 3.980625 10.75796875 3.83625 10.0859375 3.6875 C1.97462972 1.86885466 1.97462972 1.86885466 -6.1875 2.75 C-6.765 2.87375 -7.3425 2.9975 -7.9375 3.125 C-8.5975 2.465 -9.2575 1.805 -9.9375 1.125 C-6.79444562 -0.44652719 -3.446226 -0.01818589 0 0 Z " fill="#FEBB12" transform="translate(789.9375,329.875)"/>
<path d="M0 0 C-1.45855647 3.68646141 -3.30229045 5.16143971 -6.625 7.25 C-7.44226563 7.77078125 -8.25953125 8.2915625 -9.1015625 8.828125 C-10.04128906 9.40820312 -10.04128906 9.40820312 -11 10 C-12.32 9.34 -13.64 8.68 -15 8 C-13.68 8 -12.36 8 -11 8 C-11 7.01 -11 6.02 -11 5 C-10.2575 4.731875 -9.515 4.46375 -8.75 4.1875 C-5.69369987 2.86773403 -3.29552413 0 0 0 Z " fill="#EA8110" transform="translate(818,395)"/>
<path d="M0 0 C0.57492187 0.2371875 1.14984375 0.474375 1.7421875 0.71875 C0.94554687 1.24662109 0.94554687 1.24662109 0.1328125 1.78515625 C-4.90094791 5.30327712 -7.48073509 8.27140584 -10.2578125 13.71875 C-11.2478125 14.21375 -11.2478125 14.21375 -12.2578125 14.71875 C-11.2391337 8.6066772 -8.62732492 5.50593376 -4.328125 1.125 C-2.2578125 -0.28125 -2.2578125 -0.28125 0 0 Z " fill="#F2950E" transform="translate(765.2578125,335.28125)"/>
<path d="M0 0 C6.49142565 0.42335385 11.33492989 2.91099799 17 6 C12.97533665 7.34155445 11.27850135 6.22380042 7.375 4.6875 C6.20710937 4.23761719 5.03921875 3.78773438 3.8359375 3.32421875 C1 2 1 2 0 0 Z " fill="#F82512" transform="translate(872,443)"/>
<path d="M0 0 C6.43681228 0.51085812 11.95942424 1.72942897 18 4 C18 4.33 18 4.66 18 5 C11.85845775 4.41509121 5.99320151 3.45933748 0 2 C0 1.34 0 0.68 0 0 Z " fill="#F52012" transform="translate(847,449)"/>
<path d="M0 0 C9.28125 4.46875 9.28125 4.46875 11 9 C7.40852194 7.66602243 4.1156084 6.25016162 1 4 C0.1875 1.8125 0.1875 1.8125 0 0 Z " fill="#FD3623" transform="translate(939,480)"/>
<path d="M0 0 C0.98484375 0.19464844 1.9696875 0.38929688 2.984375 0.58984375 C4.10585938 0.82380859 4.10585938 0.82380859 5.25 1.0625 C5.25 1.3925 5.25 1.7225 5.25 2.0625 C-2.67 2.5575 -2.67 2.5575 -10.75 3.0625 C-10.42 2.0725 -10.09 1.0825 -9.75 0.0625 C-6.38652975 -1.41094683 -3.50831767 -0.71001667 0 0 Z " fill="#F62913" transform="translate(754.75,440.9375)"/>
<path d="M0 0 C-1.30567792 3.91703377 -2.80094602 4.31757187 -6.375 6.25 C-7.84066406 7.06210937 -7.84066406 7.06210937 -9.3359375 7.890625 C-12 9 -12 9 -15 8 C-14.31292969 7.59007812 -13.62585938 7.18015625 -12.91796875 6.7578125 C-12.01691406 6.21898437 -11.11585938 5.68015625 -10.1875 5.125 C-9.29417969 4.59132813 -8.40085937 4.05765625 -7.48046875 3.5078125 C-1.70984456 0 -1.70984456 0 0 0 Z " fill="#F41D10" transform="translate(665,462)"/>
<path d="M0 0 C-1.35236577 2.93879484 -2.89942659 5.29232911 -5 7.75 C-5.515625 8.36359375 -6.03125 8.9771875 -6.5625 9.609375 C-8 11 -8 11 -10 11 C-8.73396788 6.69549079 -5.08358566 0 0 0 Z " fill="#EE1A10" transform="translate(642,477)"/>
<path d="M0 0 C1.95825873 -0.02694851 3.91662226 -0.04637218 5.875 -0.0625 C6.96554687 -0.07410156 8.05609375 -0.08570313 9.1796875 -0.09765625 C12 0 12 0 14 1 C14 1.66 14 2.32 14 3 C11.8535247 2.88655624 9.70779408 2.75893655 7.5625 2.625 C6.36753906 2.55539062 5.17257812 2.48578125 3.94140625 2.4140625 C2.97074219 2.27742188 2.00007812 2.14078125 1 2 C0.67 1.34 0.34 0.68 0 0 Z " fill="#FA260D" transform="translate(786,422)"/>
<path d="M0 0 C6.16456078 0.38528505 9.98627748 2.47086025 15 6 C13 7 13 7 10.6171875 6.22265625 C9.25980469 5.64837891 9.25980469 5.64837891 7.875 5.0625 C6.96492187 4.68222656 6.05484375 4.30195313 5.1171875 3.91015625 C4.41851563 3.60980469 3.71984375 3.30945313 3 3 C3 2.34 3 1.68 3 1 C2.01 0.67 1.02 0.34 0 0 Z " fill="#FAB621" transform="translate(798,330)"/>
<path d="M0 0 C4.10958767 1.45044271 7.43258745 3.51110752 11 6 C10.67 6.99 10.34 7.98 10 9 C8.3278148 7.88321917 6.66237197 6.75633648 5 5.625 C3.6078125 4.68527344 3.6078125 4.68527344 2.1875 3.7265625 C1.465625 3.15679687 0.74375 2.58703125 0 2 C0 1.34 0 0.68 0 0 Z " fill="#EF2116" transform="translate(931,472)"/>
<path d="M0 0 C2.40921705 2.40921705 3.53812156 4.94334509 5 8 C1.17902761 7.46930939 -1.06171403 6.50298434 -4 4 C-2.68 4 -1.36 4 0 4 C0 2.68 0 1.36 0 0 Z " fill="#BB3A40" transform="translate(627,530)"/>
<path d="M0 0 C0 0.66 0 1.32 0 2 C-1.24420647 2.5345256 -2.49570936 3.05208611 -3.75 3.5625 C-4.44609375 3.85253906 -5.1421875 4.14257812 -5.859375 4.44140625 C-8.30012784 5.07831803 -9.6403655 4.80248831 -12 4 C-7.84698176 1.34668279 -4.92975386 0 0 0 Z " fill="#F71F10" transform="translate(678,457)"/>
<path d="M0 0 C2.31 1.98 4.62 3.96 7 6 C5.68 6.33 4.36 6.66 3 7 C1.25 5.8125 1.25 5.8125 0 4 C0 2.68 0 1.36 0 0 Z " fill="#166ABF" transform="translate(931,503)"/>
<path d="M0 0 C4.12751449 0.60698743 7.3321148 2.03810791 11 4 C7.01178789 5.32940404 4.88269755 4.43803613 1 3 C0.67 2.01 0.34 1.02 0 0 Z " fill="#205097" transform="translate(582,534)"/>
<path d="M0 0 C1.65 1.65 3.3 3.3 5 5 C2 5 2 5 -1 4 C-1 4.99 -1 5.98 -1 7 C-1.66 7 -2.32 7 -3 7 C-1.125 1.125 -1.125 1.125 0 0 Z " fill="#4765A0" transform="translate(919,491)"/>
<path d="M0 0 C2.64 0.33 5.28 0.66 8 1 C7.01 2.485 7.01 2.485 6 4 C4.35 3.67 2.7 3.34 1 3 C0.67 2.01 0.34 1.02 0 0 Z " fill="#FB3B1B" transform="translate(692,380)"/>
<path d="M0 0 C2.04119788 1.61594832 4.04072937 3.2856382 6 5 C6 5.66 6 6.32 6 7 C3.08482708 5.92598892 1.22189824 5.22189824 -1 3 C-0.67 2.01 -0.34 1.02 0 0 Z " fill="#B84C52" transform="translate(959,493)"/>
<path d="M0 0 C0.66 0 1.32 0 2 0 C5.22265625 5.2734375 5.22265625 5.2734375 6 7 C5.67 7.66 5.34 8.32 5 9 C0 3.375 0 3.375 0 0 Z " fill="#FEC925" transform="translate(817,344)"/>
<path d="M0 0 C3.36591866 1.44253657 5.51047079 3.33264727 8 6 C7.67 6.66 7.34 7.32 7 8 C1.125 3.375 1.125 3.375 0 0 Z " fill="#086DC5" transform="translate(576,531)"/>
<path d="M0 0 C0.33 0.99 0.66 1.98 1 3 C0.00390625 4.82421875 0.00390625 4.82421875 -1.4375 6.6875 C-1.91058594 7.31011719 -2.38367188 7.93273437 -2.87109375 8.57421875 C-3.24363281 9.04472656 -3.61617187 9.51523437 -4 10 C-4.33 9.01 -4.66 8.02 -5 7 C-4.34 6.01 -3.68 5.02 -3 4 C-2.34 4 -1.68 4 -1 4 C-0.67 2.68 -0.34 1.36 0 0 Z " fill="#F18E11" transform="translate(824,384)"/>
<path d="M0 0 C-0.99 0.495 -0.99 0.495 -2 1 C-2.33 1.66 -2.66 2.32 -3 3 C-7.455 2.01 -7.455 2.01 -12 1 C-12 0.67 -12 0.34 -12 0 C-10.56359829 -0.19573608 -9.12580496 -0.38127816 -7.6875 -0.5625 C-6.88699219 -0.66691406 -6.08648438 -0.77132813 -5.26171875 -0.87890625 C-3 -1 -3 -1 0 0 Z " fill="#F4441B" transform="translate(732,375)"/>
<path d="M0 0 C0.91007813 0.00902344 1.82015625 0.01804687 2.7578125 0.02734375 C3.45648437 0.03894531 4.15515625 0.05054688 4.875 0.0625 C4.875 0.3925 4.875 0.7225 4.875 1.0625 C3.25328761 1.45147161 1.62745075 1.82328298 0 2.1875 C-0.90492188 2.39632813 -1.80984375 2.60515625 -2.7421875 2.8203125 C-3.52851562 2.90023438 -4.31484375 2.98015625 -5.125 3.0625 C-5.785 2.4025 -6.445 1.7425 -7.125 1.0625 C-4.60024538 -0.19987731 -2.81299534 -0.03606404 0 0 Z " fill="#FEAF0C" transform="translate(787.125,329.9375)"/>
<path d="M0 0 C0.33 0.99 0.66 1.98 1 3 C-0.9375 6.1875 -0.9375 6.1875 -3 9 C-3.99 8.67 -4.98 8.34 -6 8 C-4.73046875 6.50260417 -3.4609375 5.00520833 -2.19140625 3.5078125 C-0.9121848 1.99405921 -0.9121848 1.99405921 0 0 Z " fill="#1956A9" transform="translate(915,498)"/>
<path d="M0 0 C0.66 0 1.32 0 2 0 C2.33 1.65 2.66 3.3 3 5 C1.35 4.67 -0.3 4.34 -2 4 C-2 3.34 -2 2.68 -2 2 C-1.34 2 -0.68 2 0 2 C0 1.34 0 0.68 0 0 Z " fill="#EE201A" transform="translate(952,488)"/>
<path d="M0 0 C3 1 3 1 3 1 Z " fill="#F0482F" transform="translate(725,447)"/>
<path d="M0 0 C2 1 2 1 2 1 Z " fill="#1A5CA6" transform="translate(706,569)"/>
<path d="M0 0 C2 1 2 1 2 1 Z " fill="#1960A9" transform="translate(752,568)"/>
<path d="" fill="#C74540" transform="translate(0,0)"/>
<path d="" fill="#C9443C" transform="translate(0,0)"/>
<path d="M0 0 C2 1 2 1 2 1 Z " fill="#F24B2F" transform="translate(765,444)"/>
<path d="M0 0 C2 1 2 1 2 1 Z " fill="#EB5225" transform="translate(766,416)"/>
<path d="M0 0 C2 1 2 1 2 1 Z " fill="#EE5A2D" transform="translate(704,376)"/>
<path d="" fill="#364F69" transform="translate(0,0)"/>
<path d="" fill="#304D6C" transform="translate(0,0)"/>
<path d="" fill="#354F6B" transform="translate(0,0)"/>
<path d="" fill="#324F6C" transform="translate(0,0)"/>
<path d="" fill="#314F70" transform="translate(0,0)"/>
<path d="" fill="#315172" transform="translate(0,0)"/>
<path d="" fill="#2F4F73" transform="translate(0,0)"/>
<path d="" fill="#2D5174" transform="translate(0,0)"/>
<path d="" fill="#39536D" transform="translate(0,0)"/>
<path d="" fill="#2D5178" transform="translate(0,0)"/>
<path d="" fill="#2E4E77" transform="translate(0,0)"/>
<path d="" fill="#2B527C" transform="translate(0,0)"/>
<path d="" fill="#315477" transform="translate(0,0)"/>
<path d="" fill="#295080" transform="translate(0,0)"/>
<path d="" fill="#245182" transform="translate(0,0)"/>
<path d="" fill="#1E518B" transform="translate(0,0)"/>
<path d="" fill="#365375" transform="translate(0,0)"/>
<path d="" fill="#1F528D" transform="translate(0,0)"/>
<path d="" fill="#345579" transform="translate(0,0)"/>
<path d="" fill="#33557D" transform="translate(0,0)"/>
<path d="" fill="#124E97" transform="translate(0,0)"/>
<path d="" fill="#335981" transform="translate(0,0)"/>
<path d="" fill="#114E95" transform="translate(0,0)"/>
<path d="" fill="#2B5389" transform="translate(0,0)"/>
<path d="" fill="#1D5499" transform="translate(0,0)"/>
<path d="" fill="#355C85" transform="translate(0,0)"/>
<path d="" fill="#385F88" transform="translate(0,0)"/>
<path d="" fill="#3A6089" transform="translate(0,0)"/>
<path d="" fill="#1C62A6" transform="translate(0,0)"/>
<path d="" fill="#1860A8" transform="translate(0,0)"/>
<path d="" fill="#1C5DA9" transform="translate(0,0)"/>
<path d="" fill="#245DA1" transform="translate(0,0)"/>
<path d="" fill="#255A9A" transform="translate(0,0)"/>
<path d="" fill="#2A5CA2" transform="translate(0,0)"/>
<path d="" fill="#385D98" transform="translate(0,0)"/>
<path d="" fill="#2F5C95" transform="translate(0,0)"/>
<path d="" fill="#1B65AF" transform="translate(0,0)"/>
<path d="" fill="#345D8E" transform="translate(0,0)"/>
<path d="" fill="#345D91" transform="translate(0,0)"/>
<path d="" fill="#385B90" transform="translate(0,0)"/>
<path d="" fill="#476899" transform="translate(0,0)"/>
<path d="" fill="#545E8B" transform="translate(0,0)"/>
<path d="" fill="#2873B9" transform="translate(0,0)"/>
<path d="" fill="#2A73B8" transform="translate(0,0)"/>
<path d="" fill="#9F4E55" transform="translate(0,0)"/>
<path d="" fill="#A04F56" transform="translate(0,0)"/>
<path d="" fill="#2472BB" transform="translate(0,0)"/>
<path d="" fill="#2771BD" transform="translate(0,0)"/>
<path d="" fill="#3676B8" transform="translate(0,0)"/>
<path d="" fill="#256FBA" transform="translate(0,0)"/>
<path d="" fill="#4077B2" transform="translate(0,0)"/>
<path d="" fill="#3C78B7" transform="translate(0,0)"/>
<path d="" fill="#4D75AB" transform="translate(0,0)"/>
<path d="" fill="#4D74AD" transform="translate(0,0)"/>
<path d="" fill="#3B76B7" transform="translate(0,0)"/>
<path d="" fill="#5D77A4" transform="translate(0,0)"/>
<path d="" fill="#4675B2" transform="translate(0,0)"/>
<path d="" fill="#9B6974" transform="translate(0,0)"/>
<path d="" fill="#C5453E" transform="translate(0,0)"/>
<path d="" fill="#A25A5B" transform="translate(0,0)"/>
<path d="" fill="#AB5558" transform="translate(0,0)"/>
<path d="" fill="#8E5F5B" transform="translate(0,0)"/>
<path d="" fill="#B9656A" transform="translate(0,0)"/>
<path d="" fill="#E54435" transform="translate(0,0)"/>
<path d="" fill="#C75952" transform="translate(0,0)"/>
<path d="" fill="#915D5B" transform="translate(0,0)"/>
<path d="" fill="#C85C55" transform="translate(0,0)"/>
<path d="" fill="#C15A50" transform="translate(0,0)"/>
<path d="" fill="#D05953" transform="translate(0,0)"/>
<path d="" fill="#E84330" transform="translate(0,0)"/>
<path d="" fill="#955E57" transform="translate(0,0)"/>
<path d="" fill="#BF5C51" transform="translate(0,0)"/>
<path d="" fill="#D55345" transform="translate(0,0)"/>
<path d="" fill="#DE563C" transform="translate(0,0)"/>
<path d="" fill="#965D56" transform="translate(0,0)"/>
<path d="" fill="#E74C3A" transform="translate(0,0)"/>
<path d="" fill="#EE4732" transform="translate(0,0)"/>
<path d="" fill="#8E5E59" transform="translate(0,0)"/>
<path d="" fill="#A85B51" transform="translate(0,0)"/>
<path d="" fill="#B95E4F" transform="translate(0,0)"/>
<path d="" fill="#DB4239" transform="translate(0,0)"/>
<path d="" fill="#985B53" transform="translate(0,0)"/>
<path d="" fill="#F14731" transform="translate(0,0)"/>
<path d="" fill="#E4523C" transform="translate(0,0)"/>
<path d="" fill="#E44F38" transform="translate(0,0)"/>
<path d="" fill="#D64235" transform="translate(0,0)"/>
<path d="" fill="#B75F4E" transform="translate(0,0)"/>
<path d="" fill="#F24930" transform="translate(0,0)"/>
<path d="" fill="#EE492E" transform="translate(0,0)"/>
<path d="" fill="#F04B2F" transform="translate(0,0)"/>
<path d="" fill="#F14C2F" transform="translate(0,0)"/>
<path d="" fill="#F34B30" transform="translate(0,0)"/>
<path d="" fill="#F34A30" transform="translate(0,0)"/>
<path d="" fill="#F4492F" transform="translate(0,0)"/>
<path d="" fill="#885950" transform="translate(0,0)"/>
<path d="" fill="#B4614D" transform="translate(0,0)"/>
<path d="" fill="#985B51" transform="translate(0,0)"/>
<path d="" fill="#EB5634" transform="translate(0,0)"/>
<path d="" fill="#ED5A36" transform="translate(0,0)"/>
<path d="" fill="#EA5937" transform="translate(0,0)"/>
<path d="" fill="#F05D34" transform="translate(0,0)"/>
<path d="" fill="#905C4D" transform="translate(0,0)"/>
<path d="" fill="#AD654B" transform="translate(0,0)"/>
<path d="" fill="#98594F" transform="translate(0,0)"/>
<path d="" fill="#7D564B" transform="translate(0,0)"/>
<path d="" fill="#F15C28" transform="translate(0,0)"/>
<path d="" fill="#EE5722" transform="translate(0,0)"/>
<path d="" fill="#AB664B" transform="translate(0,0)"/>
<path d="" fill="#96594E" transform="translate(0,0)"/>
<path d="" fill="#7D554A" transform="translate(0,0)"/>
<path d="" fill="#E14531" transform="translate(0,0)"/>
<path d="" fill="#E1432F" transform="translate(0,0)"/>
<path d="" fill="#7B5749" transform="translate(0,0)"/>
<path d="" fill="#A8664A" transform="translate(0,0)"/>
<path d="" fill="#EC631C" transform="translate(0,0)"/>
<path d="" fill="#94594D" transform="translate(0,0)"/>
<path d="" fill="#E7691A" transform="translate(0,0)"/>
<path d="" fill="#A4684A" transform="translate(0,0)"/>
<path d="" fill="#E76819" transform="translate(0,0)"/>
<path d="" fill="#E64730" transform="translate(0,0)"/>
<path d="" fill="#93584C" transform="translate(0,0)"/>
<path d="" fill="#E64B32" transform="translate(0,0)"/>
<path d="" fill="#E66C17" transform="translate(0,0)"/>
<path d="" fill="#A36A48" transform="translate(0,0)"/>
<path d="" fill="#EE9A34" transform="translate(0,0)"/>
<path d="" fill="#90584C" transform="translate(0,0)"/>
<path d="" fill="#EE4B2C" transform="translate(0,0)"/>
<path d="" fill="#EC4D2F" transform="translate(0,0)"/>
<path d="" fill="#ED5131" transform="translate(0,0)"/>
<path d="" fill="#EA5130" transform="translate(0,0)"/>
<path d="" fill="#EA6221" transform="translate(0,0)"/>
<path d="" fill="#EA4F31" transform="translate(0,0)"/>
<path d="" fill="#9E6C49" transform="translate(0,0)"/>
<path d="" fill="#8E574B" transform="translate(0,0)"/>
<path d="" fill="#865F49" transform="translate(0,0)"/>
<path d="" fill="#9F6D48" transform="translate(0,0)"/>
<path d="" fill="#9C6D49" transform="translate(0,0)"/>
<path d="" fill="#8B584A" transform="translate(0,0)"/>
<path d="" fill="#E96C25" transform="translate(0,0)"/>
<path d="" fill="#EA6E27" transform="translate(0,0)"/>
<path d="" fill="#9D6E49" transform="translate(0,0)"/>
<path d="" fill="#945845" transform="translate(0,0)"/>
<path d="" fill="#87594A" transform="translate(0,0)"/>
<path d="" fill="#875749" transform="translate(0,0)"/>
<path d="" fill="#9A6E48" transform="translate(0,0)"/>
<path d="" fill="#8B584B" transform="translate(0,0)"/>
<path d="" fill="#825F48" transform="translate(0,0)"/>
<path d="" fill="#845F48" transform="translate(0,0)"/>
<path d="" fill="#EA8C1C" transform="translate(0,0)"/>
<path d="" fill="#986F47" transform="translate(0,0)"/>
<path d="" fill="#87594A" transform="translate(0,0)"/>
<path d="" fill="#826149" transform="translate(0,0)"/>
<path d="" fill="#836247" transform="translate(0,0)"/>
<path d="" fill="#EC9420" transform="translate(0,0)"/>
<path d="" fill="#966F48" transform="translate(0,0)"/>
<path d="" fill="#86594A" transform="translate(0,0)"/>
<path d="" fill="#986F49" transform="translate(0,0)"/>
<path d="" fill="#EB9929" transform="translate(0,0)"/>
<path d="" fill="#946F48" transform="translate(0,0)"/>
<path d="" fill="#845A4A" transform="translate(0,0)"/>
<path d="" fill="#7F6349" transform="translate(0,0)"/>
<path d="" fill="#EA9F29" transform="translate(0,0)"/>
<path d="" fill="#815A4B" transform="translate(0,0)"/>
<path d="" fill="#7C6449" transform="translate(0,0)"/>
<path d="" fill="#8F6E49" transform="translate(0,0)"/>
<path d="" fill="#7F5B4B" transform="translate(0,0)"/>
<path d="" fill="#906E4A" transform="translate(0,0)"/>
<path d="" fill="#835B48" transform="translate(0,0)"/>
<path d="" fill="#8C6E49" transform="translate(0,0)"/>
<path d="" fill="#D1A14A" transform="translate(0,0)"/>
<path d="" fill="#7B6149" transform="translate(0,0)"/>
<path d="" fill="#836849" transform="translate(0,0)"/>
<path d="" fill="#8C6C4A" transform="translate(0,0)"/>
<path d="" fill="#7F5A48" transform="translate(0,0)"/>
<path d="" fill="#886D4A" transform="translate(0,0)"/>
<path d="" fill="#8A6D4B" transform="translate(0,0)"/>
<path d="" fill="#866C4B" transform="translate(0,0)"/>
<path d="" fill="#966544" transform="translate(0,0)"/>
<path d="" fill="#836A4A" transform="translate(0,0)"/>
<path d="" fill="#846B4B" transform="translate(0,0)"/>
<path d="" fill="#7F6A4B" transform="translate(0,0)"/>
<path d="" fill="#80684D" transform="translate(0,0)"/>
<path d="" fill="#92774D" transform="translate(0,0)"/>
</svg>
